# This file uses centimeters as units for non-parametric coordinates.

mtllib dirt.mtl
g default
v -2.003507 -2.454283 2.187624
v -1.347260 -2.412165 2.187624
v -0.482757 -1.662490 2.187624
v 0.381747 -1.557685 2.187624
v 1.217087 -1.720392 2.433062
v 2.081589 -1.720392 2.433062
v -2.211762 -1.072689 1.323121
v -1.347260 -1.079986 1.323121
v -0.482757 -1.585000 1.323121
v 0.381747 -1.441477 1.323121
v 1.246249 -0.888233 1.323121
v 2.110752 -1.308969 1.323121
v -2.472544 -1.350371 0.499940
v -1.347260 -1.284875 0.499940
v -0.482757 -1.672530 0.499940
v 0.381747 -2.155840 0.499940
v 1.246249 -1.906335 0.499940
v 2.110752 -1.697336 0.499940
v -2.211762 -1.587575 -0.405885
v -1.347260 -1.060662 -0.405885
v -0.482757 -1.679322 -0.405885
v 0.381747 -1.549233 -0.405885
v 1.246249 -1.521222 -0.405885
v 2.122579 -1.606749 -0.405885
v -2.211762 -1.131522 -1.270388
v -1.347260 -1.110978 -1.270388
v -0.482757 -1.368338 -1.270388
v 0.381747 -1.634148 -1.270388
v 1.246249 -1.634148 -1.270388
v 2.110752 -1.577642 -1.270388
v -2.211762 -1.341166 -2.134890
v -1.347260 -1.558544 -2.134890
v -0.482757 -1.586418 -2.134890
v 0.381747 -1.747504 -2.134890
v 1.246249 -1.132689 -2.134890
v 2.110752 -1.647774 -2.134890
vt 0.000000 0.000000
vt 0.200000 0.000000
vt 0.200000 0.200000
vt 0.000000 0.200000
vt 0.400000 0.000000
vt 0.400000 0.200000
vt 0.600000 0.000000
vt 0.600000 0.200000
vt 0.800000 0.000000
vt 0.800000 0.200000
vt 1.000000 0.000000
vt 1.000000 0.200000
vt 0.200000 0.400000
vt 0.000000 0.400000
vt 0.400000 0.400000
vt 0.600000 0.400000
vt 0.800000 0.400000
vt 1.000000 0.400000
vt 0.200000 0.600000
vt 0.000000 0.600000
vt 0.400000 0.600000
vt 0.600000 0.600000
vt 0.800000 0.600000
vt 1.000000 0.600000
vt 0.200000 0.800000
vt 0.000000 0.800000
vt 0.400000 0.800000
vt 0.600000 0.800000
vt 0.800000 0.800000
vt 1.000000 0.800000
vt 0.200000 1.000000
vt 0.000000 1.000000
vt 0.400000 1.000000
vt 0.600000 1.000000
vt 0.800000 1.000000
vt 1.000000 1.000000
vn -0.022387 0.977688 -0.208864
vn -0.022387 0.977688 -0.208864
vn -0.022387 0.977688 -0.208864
vn -0.022387 0.977688 -0.208864
vn 0.135900 0.949709 -0.282107
vn 0.105010 0.901869 -0.419053
vn 0.209755 0.875169 -0.435985
vn 0.176836 0.938926 -0.295206
vn 0.105010 0.901869 -0.419053
vn -0.147559 0.900070 -0.410000
vn -0.121969 0.823714 -0.553732
vn 0.209755 0.875169 -0.435985
vn -0.147559 0.900070 -0.410000
vn -0.157505 0.969461 -0.187981
vn -0.244391 0.862915 -0.442325
vn -0.121969 0.823714 -0.553732
vn -0.157505 0.969461 -0.187981
vn -0.061570 0.997610 -0.031361
vn -0.216695 0.907130 -0.360774
vn -0.244391 0.862915 -0.442325
vn -0.026040 0.967245 -0.252505
vn 0.176836 0.938926 -0.295206
vn 0.259286 0.964898 -0.041737
vn -0.058111 0.998065 -0.022129
vn 0.176836 0.938926 -0.295206
vn 0.209755 0.875169 -0.435985
vn 0.346890 0.933339 -0.092444
vn 0.259286 0.964898 -0.041737
vn 0.209755 0.875169 -0.435985
vn -0.121969 0.823714 -0.553732
vn -0.073094 0.984750 -0.157873
vn 0.346890 0.933339 -0.092444
vn -0.121969 0.823714 -0.553732
vn -0.244391 0.862915 -0.442325
vn -0.358035 0.912311 -0.198744
vn -0.073094 0.984750 -0.157873
vn -0.244391 0.862915 -0.442325
vn -0.216695 0.907130 -0.360774
vn -0.432902 0.870436 -0.234388
vn -0.358035 0.912311 -0.198744
vn -0.058111 0.998065 -0.022129
vn 0.259286 0.964898 -0.041737
vn 0.230228 0.962823 0.141304
vn -0.077788 0.989582 0.121144
vn 0.259286 0.964898 -0.041737
vn 0.346890 0.933339 -0.092444
vn 0.342101 0.913889 0.218572
vn 0.230228 0.962823 0.141304
vn 0.346890 0.933339 -0.092444
vn -0.073094 0.984750 -0.157873
vn -0.003775 0.968433 0.249247
vn 0.342101 0.913889 0.218572
vn -0.073094 0.984750 -0.157873
vn -0.358035 0.912311 -0.198744
vn -0.320402 0.934587 0.154565
vn -0.003775 0.968433 0.249247
vn -0.358035 0.912311 -0.198744
vn -0.432902 0.870436 -0.234388
vn -0.459725 0.882925 0.095380
vn -0.320402 0.934587 0.154565
vn -0.077788 0.989582 0.121144
vn 0.230228 0.962823 0.141304
vn 0.122617 0.992384 0.011830
vn -0.089847 0.992483 -0.083098
vn 0.230228 0.962823 0.141304
vn 0.342101 0.913889 0.218572
vn 0.257341 0.953334 0.157892
vn 0.122617 0.992384 0.011830
vn 0.342101 0.913889 0.218572
vn -0.003775 0.968433 0.249247
vn 0.040680 0.978231 0.203492
vn 0.257341 0.953334 0.157892
vn -0.003775 0.968433 0.249247
vn -0.320402 0.934587 0.154565
vn -0.235910 0.958549 0.159783
vn 0.040680 0.978231 0.203492
vn -0.320402 0.934587 0.154565
vn -0.459725 0.882925 0.095380
vn -0.366965 0.919829 0.138751
vn -0.235910 0.958549 0.159783
vn -0.089847 0.992483 -0.083098
vn 0.122617 0.992384 0.011830
vn 0.026838 0.998546 -0.046740
vn -0.108285 0.982236 -0.153252
vn 0.122617 0.992384 0.011830
vn 0.257341 0.953334 0.157892
vn 0.198808 0.967949 0.153463
vn 0.026838 0.998546 -0.046740
vn 0.257341 0.953334 0.157892
vn 0.040680 0.978231 0.203492
vn 0.053157 0.941596 0.332522
vn 0.198808 0.967949 0.153463
vn 0.040680 0.978231 0.203492
vn -0.235910 0.958549 0.159783
vn -0.211853 0.909866 0.356739
vn 0.053157 0.941596 0.332522
vn -0.235910 0.958549 0.159783
vn -0.366965 0.919829 0.138751
vn -0.292698 0.904874 0.309081
vn -0.211853 0.909866 0.356739
s off
g polySurface1 base_plane:polySurface3
usemtl base_plane:phong5SG
f 1/1/1 2/2/2 8/3/3 7/4/4
f 2/2/5 3/5/6 9/6/7 8/3/8
f 3/5/9 4/7/10 10/8/11 9/6/12
f 4/7/13 5/9/14 11/10/15 10/8/16
f 5/9/17 6/11/18 12/12/19 11/10/20
f 7/4/21 8/3/22 14/13/23 13/14/24
f 8/3/25 9/6/26 15/15/27 14/13/28
f 9/6/29 10/8/30 16/16/31 15/15/32
f 10/8/33 11/10/34 17/17/35 16/16/36
f 11/10/37 12/12/38 18/18/39 17/17/40
f 13/14/41 14/13/42 20/19/43 19/20/44
f 14/13/45 15/15/46 21/21/47 20/19/48
f 15/15/49 16/16/50 22/22/51 21/21/52
f 16/16/53 17/17/54 23/23/55 22/22/56
f 17/17/57 18/18/58 24/24/59 23/23/60
f 19/20/61 20/19/62 26/25/63 25/26/64
f 20/19/65 21/21/66 27/27/67 26/25/68
f 21/21/69 22/22/70 28/28/71 27/27/72
f 22/22/73 23/23/74 29/29/75 28/28/76
f 23/23/77 24/24/78 30/30/79 29/29/80
f 25/26/81 26/25/82 32/31/83 31/32/84
f 26/25/85 27/27/86 33/33/87 32/31/88
f 27/27/89 28/28/90 34/34/91 33/33/92
f 28/28/93 29/29/94 35/35/95 34/34/96
f 29/29/97 30/30/98 36/36/99 35/35/100
