# File produced by Open Asset Import Library (http://www.assimp.sf.net)
# (assimp v3.1.206520482)

mtllib drill.mtl

# 82 vertex positions
v -0.145069 -0.663954 0.350319
v -0.369039 -0.492803 0.330189
v -0.502557 -0.663954 0.20525
v -0.706397 -0.492803 -0.03885
v -0.175242 0.642021 -0.475453
v 0 1.11526 -0.007169
v 0.259485 0.593633 -0.35314
v 0.468284 0.642021 -0.18241
v 0.369039 -0.492803 -0.344527
v 0.145069 -0.663954 -0.364656
v 0.031681 -0.492803 -0.713565
v -0.212419 -0.663954 -0.509726
v -0.357488 -0.663954 -0.152238
v 0 -0.663954 -0.007169
v 0.357488 -0.663954 0.137901
v 0.337358 -0.492803 0.36187
v 0.212419 -0.663954 0.495388
v -0.031681 -0.492803 0.699228
v -0.337358 -0.492803 -0.376207
v 0.293043 0.500168 -0.650695
v -0.175242 0.500168 -0.475453
v 0.468284 0.500168 -0.18241
v 0.175242 0.642021 0.461116
v 0.175242 0.500168 0.461116
v 0.345971 0.593633 0.252317
v 0.643526 0.500168 0.285874
v -0.643526 0.500168 -0.300211
v -0.468284 0.500168 0.168073
v -0.345971 0.593633 -0.266654
v -0.468284 0.642021 0.168073
v 0.488062 0.358315 -0.518828
v -0.011799 0.358315 -0.507029
v 0.499861 0.358315 -0.018968
v 0.51166 0.358315 0.480893
v 0.011799 0.358315 0.492692
v -0.51166 0.358315 -0.49523
v -0.499861 0.358315 0.00463
v 0.707049 0.216462 0.001861
v 0.358039 0.216462 -0.356178
v 0.34901 0.216462 0.350871
v -0.00903 0.216462 0.69988
v -0.358039 0.216462 0.341841
v 0.00903 0.216462 -0.714218
v -0.34901 0.216462 -0.365208
v 0.474836 0.074609 0.516788
v 0.499396 0.074609 0.017392
v -0.02456 0.074609 0.492228
v -0.523957 0.074609 0.467667
v -0.499396 0.074609 -0.031729
v 0.523957 0.074609 -0.482005
v 0.02456 0.074609 -0.506565
v -0.060392 -0.067244 0.697355
v 0.322066 -0.067244 0.375289
v -0.382457 -0.067244 0.314897
v -0.704523 -0.067244 -0.06756
v -0.322066 -0.067244 -0.389626
v 0.704523 -0.067244 0.053223
v 0.382457 -0.067244 -0.329234
v -0.557081 -0.209097 0.428332
v -0.06079 -0.209097 0.489122
v -0.496291 -0.209097 -0.067958
v -0.435501 -0.209097 -0.564249
v 0.06079 -0.209097 -0.503459
v 0.435501 -0.209097 0.549912
v 0.496291 -0.209097 0.053621
v -0.706397 -0.35095 -0.03885
v -0.369039 -0.35095 0.330189
v -0.337358 -0.35095 -0.376207
v 0.031681 -0.35095 -0.713565
v 0.369039 -0.35095 -0.344527
v -0.031681 -0.35095 0.699228
v 0.337358 -0.35095 0.36187
v 0.706397 -0.492803 0.024512
v 0.502557 -0.663954 -0.219587
v 0.706397 -0.35095 0.024512
v 0.557081 -0.209097 -0.44267
v 0.060392 -0.067244 -0.711692
v -0.474836 0.074609 -0.531125
v -0.707049 0.216462 -0.016198
v -0.488062 0.358315 0.504491
v -0.293043 0.500168 0.636358
v -0.259485 0.593633 0.338803

# 88 UV coordinates
vt 0.354212 0.461901 0
vt 0.330095 0.416702 0
vt 0.373058 0.416161 0
vt 0.404671 0.375173 0
vt 0.760816 0.2454 0
vt 0.773264 0.0582955 0
vt 0.862978 0.27737 0
vt 0.902414 0.222636 0
vt 0.49722 0.527114 0
vt 0.474204 0.485818 0
vt 0.531286 0.449859 0
vt 0.483213 0.429946 0
vt 0.431769 0.420103 0
vt 0.415855 0.475615 0
vt 0.39304 0.533261 0
vt 0.342426 0.555486 0
vt 0.345371 0.516168 0
vt 0.301609 0.487146 0
vt 0.480441 0.392423 0
vt 0.849201 0.421449 0
vt 0.760672 0.288482 0
vt 0.928046 0.24361 0
vt 0.968595 0.0630639 0
vt 0.999999 0.0774693 0
vt 0.953425 0.127863 0
vt 0.0560548 0.716346 0
vt 2.38419e-07 0.489892 0
vt 0.121858 0.699575 0
vt 0.654329 0.221146 0
vt 0.51818 0.164216 0
vt 0.696514 0.185899 0
vt 0.546281 0.142487 0
vt 0.60859 0.684603 0
vt 0.786192 0.388167 0
vt 0.284037 0.808653 0
vt 0.307347 0.859329 0
vt 0.921912 0.37128 0
vt 0.103722 0.611638 0
vt 0.10129 0.383827 0
vt 0.6807 0.274308 0
vt 0.538057 0.198595 0
vt 0.318396 0.761569 0
vt 0.584784 0.64967 0
vt 0.158849 0.62211 0
vt 0.139495 0.40587 0
vt 0.287392 0.232185 0
vt 0.731228 0.411889 0
vt 0.63766 0.291963 0
vt 0.20098 0.610903 0
vt 0.357942 0.719158 0
vt 0.171725 0.43598 0
vt 0.294301 0.277063 0
vt 0.458542 0.256729 0
vt 0.563803 0.624691 0
vt 0.682564 0.42623 0
vt 0.207834 0.451677 0
vt 0.244893 0.603156 0
vt 0.29365 0.324492 0
vt 0.438454 0.289377 0
vt 0.564916 0.333915 0
vt 0.375565 0.68021 0
vt 0.545964 0.597394 0
vt 0.309201 0.360438 0
vt 0.242018 0.47416 0
vt 0.418002 0.321875 0
vt 0.53274 0.357589 0
vt 0.595503 0.440602 0
vt 0.281253 0.583237 0
vt 0.399329 0.641927 0
vt 0.401796 0.356156 0
vt 0.311668 0.40449 0
vt 0.492588 0.372328 0
vt 0.553664 0.442146 0
vt 0.517543 0.537453 0
vt 0.27878 0.489028 0
vt 0.327355 0.574606 0
vt 0.420231 0.582705 0
vt 0.453861 0.535156 0
vt 0.417915 0.603715 0
vt 0.52347 0.574937 0
vt 0.637469 0.437731 0
vt 0.601491 0.314452 0
vt 0.495022 0.225816 0
vt 0.315174 0.162926 0
vt 0.271785 0.121614 0
vt 0.461588 0.104182 0
vt 0.506858 0.000512481 0
vt 0.466492 2.08616e-07 0

# 130 vertex normals
vn -0.4147 -0.716851 0.56049
vn -0.651756 -0.219452 0.725985
vn -0.590348 -0.121912 0.797889
vn -0.709891 -0.025913 0.703835
vn -0.259919 0.752866 -0.604678
vn 0 1 0
vn 0.322071 0.629312 -0.707274
vn 0.604678 0.752866 -0.259919
vn 0.651756 -0.219452 -0.725985
vn 0.4147 -0.716851 -0.56049
vn 0.560219 -0.542934 -0.625602
vn 0.372512 -0.779585 -0.50347
vn 0 -1 -0
vn 0.56049 -0.716851 0.4147
vn 0.725985 -0.219452 0.651756
vn 0.797889 -0.121912 0.590348
vn 0.703835 -0.025913 0.709891
vn -0.50347 -0.779585 -0.372512
vn -0.625602 -0.542934 -0.560219
vn -0.56049 -0.716851 -0.4147
vn -0.725985 -0.219452 -0.651756
vn -0.133559 -0.061416 -0.989136
vn -0.178644 0.549654 -0.816068
vn 0.005711 0.784662 -0.619898
vn -0.162978 0.748183 -0.643164
vn 0.792257 0.555619 -0.252224
vn 0.63836 0.637153 -0.431894
vn 0.816068 0.549654 -0.178644
vn 0.643164 0.748184 -0.162978
vn 0.162978 0.748183 0.643164
vn 0.178644 0.549654 0.816068
vn 0.431894 0.637153 0.63836
vn 0.252224 0.555619 0.792257
vn -0.989136 -0.061416 0.133559
vn -0.816068 0.549654 0.178644
vn -0.619898 0.784662 -0.005711
vn -0.643164 0.748184 0.162978
vn 0.139954 -0.770732 -0.621599
vn 0.083748 0.281668 -0.95585
vn 0.95585 0.281668 0.083748
vn 0.803316 0.589622 -0.08384
vn 0.08384 0.589622 0.803316
vn -0.083748 0.281668 0.95585
vn -0.621599 -0.770732 -0.139954
vn -0.95585 0.281668 -0.083748
vn 0.491878 -0.828343 -0.268148
vn 0.716079 -0 -0.698019
vn 0.698019 0 0.716079
vn 0.48487 0.828343 0.280622
vn -0.280622 0.828343 0.48487
vn -0.716079 -0 0.698019
vn -0.268148 -0.828343 -0.491878
vn -0.698019 0 -0.716079
vn 0.531312 -0.828343 0.177638
vn 0.998793 0 0.049121
vn -0.049121 0 0.998793
vn 0.124647 0.828343 0.546178
vn -0.546178 0.828343 0.124647
vn -0.998793 0 -0.049121
vn 0.177638 -0.828343 -0.531312
vn 0.049121 -0 -0.998793
vn 0.231691 -0.828343 0.510066
vn 0.644132 -0 0.764915
vn -0.764915 -0 0.644132
vn -0.315119 0.828343 0.463193
vn -0.463193 0.828343 -0.315119
vn -0.644131 0 -0.764915
vn 0.510066 -0.828343 -0.231691
vn 0.764915 -0 -0.644132
vn -0.209765 -0.794151 0.570371
vn -0.0978421 -0.048458 0.994022
vn -0.994022 -0.048458 -0.097842
vn -0.565648 0.82072 0.080375
vn -0.080375 0.82072 -0.565648
vn 0.0978421 -0.048458 -0.994022
vn 0.570371 -0.794151 0.209765
vn 0.994022 -0.048458 0.0978421
vn -0.658271 -0.266279 0.704113
vn -0.563932 -0.389259 0.728325
vn -0.728325 -0.389259 -0.563932
vn -0.666144 0.559112 -0.493605
vn 0.493605 0.559112 -0.666144
vn 0.563932 -0.389259 -0.728325
vn 0.704113 -0.266279 0.658271
vn 0.728325 -0.389259 0.563932
vn 0.707274 0.629312 0.322071
vn 0.259919 0.752866 0.604678
vn 0.989136 -0.061416 -0.133559
vn 0.619898 0.784662 0.005711
vn 0.621599 -0.770732 0.139954
vn 0.268148 -0.828343 0.491878
vn -0.177638 -0.828343 0.531312
vn -0.510066 -0.828343 0.231691
vn -0.570371 -0.794151 -0.209765
vn -0.704113 -0.266279 -0.658271
vn -0.703835 -0.025913 -0.709891
vn -0.797889 -0.121912 -0.590348
vn 0.625602 -0.542934 0.560219
vn 0.50347 -0.779585 0.372512
vn 0.666144 0.559112 0.493605
vn 0.565648 0.82072 -0.080375
vn 0.315119 0.828343 -0.463193
vn -0.124647 0.828343 -0.546178
vn -0.48487 0.828343 -0.280622
vn -0.803316 0.589622 0.08384
vn -0.792257 0.555619 0.252224
vn -0.63836 0.637153 0.431894
vn -0.707274 0.629312 -0.322071
vn -0.604678 0.752866 0.259919
vn -0.322071 0.629312 0.707274
vn -0.005711 0.784662 0.619898
vn 0.133559 -0.061416 0.989136
vn -0.139954 -0.770732 0.621599
vn -0.491878 -0.828343 0.268148
vn -0.531312 -0.828343 -0.177638
vn -0.231691 -0.828343 -0.510066
vn 0.209765 -0.794151 -0.570371
vn 0.658271 -0.266279 -0.704113
vn 0.709891 -0.025913 -0.703835
vn 0.590348 -0.121912 -0.797889
vn -0.560219 -0.542934 0.625602
vn -0.372512 -0.779585 0.50347
vn -0.493605 0.559112 0.666144
vn 0.080375 0.82072 0.565648
vn 0.463193 0.828343 0.315119
vn 0.546178 0.828343 -0.124647
vn 0.280622 0.828343 -0.48487
vn -0.08384 0.589622 -0.803316
vn -0.252224 0.555619 -0.792257
vn -0.431894 0.637153 -0.63836

# Mesh 'cap_drill:pCube1_cap_drill:pCube1' with 160 faces
g cap_drill:pCube1_cap_drill:pCube1
usemtl cap_drill_initialShadingGroup1
f 1/1/1 2/2/2 3/3/3
f 3/3/3 2/2/2 4/4/4
f 5/5/5 6/6/6 7/7/7
f 7/7/7 6/6/6 8/8/8
f 9/9/9 10/10/10 11/11/11
f 11/11/11 10/10/10 12/12/12
f 13/13/13 14/14/13 3/3/13
f 3/3/13 14/14/13 1/1/13
f 15/15/14 16/16/15 17/17/16
f 17/17/16 16/16/15 18/18/17
f 3/3/18 4/4/19 13/13/20
f 13/13/20 4/4/19 19/19/21
f 20/20/22 21/21/23 7/7/24
f 7/7/24 21/21/23 5/5/25
f 20/20/26 7/7/27 22/22/28
f 22/22/28 7/7/27 8/8/29
f 23/23/30 24/24/31 25/25/32
f 25/26/32 24/27/31 26/28/33
f 27/29/34 28/30/35 29/31/36
f 29/31/36 28/30/35 30/32/37
f 31/33/38 32/34/39 20/20/22
f 20/20/22 32/34/39 21/21/23
f 33/35/40 31/33/41 22/36/28
f 22/22/28 31/37/41 20/20/26
f 26/28/33 24/27/31 34/38/42
f 34/38/42 24/27/31 35/39/43
f 36/40/44 37/41/45 27/29/34
f 27/29/34 37/41/45 28/30/35
f 38/42/46 39/43/47 31/33/38
f 31/33/38 39/43/47 32/34/39
f 40/44/48 38/42/49 33/35/40
f 33/35/40 38/42/49 31/33/41
f 34/38/42 35/39/43 41/45/50
f 41/45/50 35/39/43 42/46/51
f 43/47/52 44/48/53 36/40/44
f 36/40/44 44/48/53 37/41/45
f 45/49/54 46/50/55 38/42/46
f 38/42/46 46/50/55 39/43/47
f 47/51/56 45/49/57 40/44/48
f 40/44/48 45/49/57 38/42/49
f 41/45/50 42/46/51 48/52/58
f 48/52/58 42/46/51 49/53/59
f 50/54/60 51/55/61 43/47/52
f 43/47/52 51/55/61 44/48/53
f 52/56/62 53/57/63 45/49/54
f 45/49/54 53/57/63 46/50/55
f 54/58/64 52/56/65 47/51/56
f 47/51/56 52/56/65 45/49/57
f 48/52/58 49/53/59 55/59/66
f 55/59/66 49/53/59 56/60/67
f 57/61/68 58/62/69 50/54/60
f 50/54/60 58/62/69 51/55/61
f 59/63/70 60/64/71 52/56/62
f 52/56/62 60/64/71 53/57/63
f 61/65/72 59/63/73 54/58/64
f 54/58/64 59/63/73 52/56/65
f 55/59/66 56/60/67 62/66/74
f 62/66/74 56/60/67 63/67/75
f 64/68/76 65/69/77 57/61/68
f 57/61/68 65/69/77 58/62/69
f 66/70/78 67/71/79 59/63/70
f 59/63/70 67/71/79 60/64/71
f 68/72/80 66/70/81 61/65/72
f 61/65/72 66/70/81 59/63/73
f 62/66/74 63/67/75 69/73/82
f 69/73/82 63/67/75 70/74/83
f 71/75/84 72/76/85 64/68/76
f 64/68/76 72/76/85 65/69/77
f 4/4/4 2/2/2 66/70/78
f 66/70/78 2/2/2 67/71/79
f 19/19/21 4/4/19 68/72/80
f 68/72/80 4/4/19 66/70/81
f 69/73/82 70/74/83 11/11/11
f 11/11/11 70/74/83 9/9/9
f 18/18/17 16/16/15 71/75/84
f 71/75/84 16/16/15 72/76/85
f 8/8/8 6/6/6 25/25/86
f 25/25/86 6/6/6 23/23/87
f 26/28/88 22/36/28 25/26/89
f 25/25/89 22/22/28 8/8/29
f 34/38/90 33/35/40 26/28/88
f 26/28/88 33/35/40 22/36/28
f 41/45/91 40/44/48 34/38/90
f 34/38/90 40/44/48 33/35/40
f 48/52/92 47/51/56 41/45/91
f 41/45/91 47/51/56 40/44/48
f 55/59/93 54/58/64 48/52/92
f 48/52/92 54/58/64 47/51/56
f 62/66/94 61/65/72 55/59/93
f 55/59/93 61/65/72 54/58/64
f 69/73/95 68/72/80 62/66/94
f 62/66/94 68/72/80 61/65/72
f 11/11/96 19/19/21 69/73/95
f 69/73/95 19/19/21 68/72/80
f 13/13/20 19/19/21 12/12/97
f 12/12/97 19/19/21 11/11/96
f 12/12/13 10/10/13 13/13/13
f 13/13/13 10/10/13 14/14/13
f 16/16/15 15/15/14 73/77/98
f 73/77/98 15/15/14 74/78/99
f 72/76/85 16/16/15 75/79/100
f 75/79/100 16/16/15 73/77/98
f 72/76/85 75/79/100 65/69/77
f 65/69/77 75/79/100 76/80/101
f 65/69/77 76/80/101 58/62/69
f 58/62/69 76/80/101 77/81/102
f 58/62/69 77/81/102 51/55/61
f 51/55/61 77/81/102 78/82/103
f 51/55/61 78/82/103 44/48/53
f 44/48/53 78/82/103 79/83/104
f 44/48/53 79/83/104 37/41/45
f 37/41/45 79/83/104 80/84/105
f 37/41/45 80/84/105 28/30/35
f 28/30/35 80/84/105 81/85/106
f 30/32/37 28/30/35 82/86/107
f 82/86/107 28/30/35 81/85/106
f 5/5/5 29/31/108 6/6/6
f 6/6/6 29/31/108 30/32/109
f 23/87/87 6/6/6 82/86/110
f 82/86/110 6/6/6 30/32/109
f 23/87/30 82/86/111 24/88/31
f 24/88/31 82/86/111 81/85/112
f 24/27/31 81/85/112 35/39/43
f 35/39/43 81/85/112 80/84/113
f 35/39/43 80/84/113 42/46/51
f 42/46/51 80/84/113 79/83/114
f 42/46/51 79/83/114 49/53/59
f 49/53/59 79/83/114 78/82/115
f 49/53/59 78/82/115 56/60/67
f 56/60/67 78/82/115 77/81/116
f 56/60/67 77/81/116 63/67/75
f 63/67/75 77/81/116 76/80/117
f 63/67/75 76/80/117 70/74/83
f 70/74/83 76/80/117 75/79/118
f 9/9/9 70/74/83 73/77/119
f 73/77/119 70/74/83 75/79/118
f 10/10/10 9/9/9 74/78/120
f 74/78/120 9/9/9 73/77/119
f 14/14/13 10/10/13 15/15/13
f 15/15/13 10/10/13 74/78/13
f 1/1/13 14/14/13 17/17/13
f 17/17/13 14/14/13 15/15/13
f 2/2/2 1/1/1 18/18/121
f 18/18/121 1/1/1 17/17/122
f 67/71/79 2/2/2 71/75/123
f 71/75/123 2/2/2 18/18/121
f 67/71/79 71/75/123 60/64/71
f 60/64/71 71/75/123 64/68/124
f 60/64/71 64/68/124 53/57/63
f 53/57/63 64/68/124 57/61/125
f 53/57/63 57/61/125 46/50/55
f 46/50/55 57/61/125 50/54/126
f 46/50/55 50/54/126 39/43/47
f 39/43/47 50/54/126 43/47/127
f 39/43/47 43/47/127 32/34/39
f 32/34/39 43/47/127 36/40/128
f 32/34/39 36/40/128 21/21/23
f 21/21/23 36/40/128 27/29/129
f 5/5/25 21/21/23 29/31/130
f 29/31/130 21/21/23 27/29/129

